<svg xmlns="http://www.w3.org/2000/svg" width="143" height="48" viewBox="0 0 143 48">
    <path fill="#FFF" fill-rule="evenodd" d="M92.679 17.052c0 1.777-.507 3.066-1.52 3.87-1.013.803-2.648 1.209-4.905 1.209H81.24V11.963h5.014c2.257 0 3.892.396 4.905 1.208 1.013.81 1.52 2.104 1.52 3.881zm43.074 8.931a16.365 16.365 0 0 1-2.133 6.173c-1.19 2.002-2.674 3.682-4.452 5.039-1.778 1.357-3.808 2.356-6.085 2.993a17.567 17.567 0 0 1-6.719.56 17.107 17.107 0 0 1-6.348-1.976c-2.046-1.112-3.757-2.532-5.135-4.266-1.377-1.732-2.38-3.715-3.007-5.946a15.752 15.752 0 0 1-.43-6.427 16.366 16.366 0 0 1 1.373-4.714l4.255 2.016c-.404.983-.67 2.016-.792 3.099a12.49 12.49 0 0 0 .395 4.847 12.336 12.336 0 0 0 2.17 4.306 12.161 12.161 0 0 0 3.646 3.116c1.4.812 2.919 1.314 4.554 1.506 1.634.19 3.248.064 4.842-.383a12.555 12.555 0 0 0 4.364-2.173 11.96 11.96 0 0 0 3.123-3.683 12.248 12.248 0 0 0 1.129-9.368 12.08 12.08 0 0 0-2.162-4.269c-.995-1.253-2.237-2.305-3.729-3.155a11.941 11.941 0 0 0-4.577-1.545 12.206 12.206 0 0 0-4.83.38c-.825.228-1.612.547-2.358.942l10.285 4.55-4.8 2.714 6.656 7.744-2.582 2.218-6.657-7.745-3.408 4.333-4.338-15.955.02-.016a17.596 17.596 0 0 1 6.004-2.982c2.263-.633 4.523-.83 6.784-.59 2.259.24 4.376.903 6.35 1.988 2.065 1.123 3.778 2.536 5.14 4.24 1.363 1.704 2.36 3.687 2.995 5.95.596 2.129.749 4.287.457 6.48zm-41.082-2.136c-1.9 1.625-4.544 2.47-7.93 2.47H81.24v13.907h-4.638V7.776h10.14c3.385 0 6.029.817 7.93 2.454 1.903 1.638 2.854 3.927 2.854 6.833 0 2.89-.951 5.163-2.855 6.784zM68.074 40.224h-4.489V14.887L52.352 27.962 41.144 14.887v25.337h-4.489V7.776h3.992l11.664 13.63 11.69-13.63h4.073v32.448zm-40.396 0H7.78V7.776h19.45v4.187H12.418v9.72H26.78v4.186H12.418v10.168h15.26v4.187zM0 48h142.431V0H0v48z"/>
</svg>
