<svg xmlns="http://www.w3.org/2000/svg" width="300" height="150" viewBox="0 0 300 150">
    <g fill="none" fill-rule="evenodd">
        <path fill="#FFF" d="M0 0h300v150H0z"/>
        <path fill="#000" d="M105.542 94.744c-.338 0-.713-.076-1.05-.227-1.127-.606-1.577-2.006-.977-3.141l10.548-20.702h-9.91a2.284 2.284 0 0 1-2.29-2.308c0-1.287 1.014-2.347 2.29-2.347h13.7c.789 0 1.54.417 1.952 1.136.413.68.45 1.551.075 2.27l-12.273 24.07a2.338 2.338 0 0 1-2.065 1.25"/>
        <path fill="#1D1C1B" d="M134.502 83.125l-4.579-9.234-4.242 9.234h8.821zm8.183 11.43c-1.089.568-2.44.113-3.003-.984l-2.928-5.904H123.88c-.113 0-.188 0-.263-.038l-2.702 5.866a2.247 2.247 0 0 1-2.027 1.325c-.338 0-.638-.076-.939-.227a2.248 2.248 0 0 1-1.088-2.99l10.96-23.88a2.283 2.283 0 0 1 1.99-1.325h.037c.863 0 1.614.492 2.027 1.249l11.823 23.88c.563 1.136.113 2.498-1.013 3.028zM151.543 78.433h5.93c2.177 0 4.092-1.78 4.092-3.785 0-2.233-1.802-4.2-3.791-4.2h-6.231v7.985zm13.287 15.97c-.338.19-.675.265-1.05.265-.789 0-1.577-.416-1.953-1.21l-5.517-10.56h-4.767v9.5c0 1.248-.976 2.233-2.215 2.233-1.238 0-2.214-.985-2.214-2.233V68.403c0-1.173.938-2.157 2.102-2.232v-.228h8.558c4.466 0 8.22 3.974 8.22 8.705 0 3.293-2.102 6.207-5.067 7.493l4.842 9.235c.563 1.097.15 2.46-.939 3.027zM190.579 68.29c0 1.287-1.014 2.308-2.252 2.308h-6.456v21.837c0 1.287-1.014 2.31-2.252 2.31a2.284 2.284 0 0 1-2.29-2.31V70.598h-6.418c-1.239 0-2.252-1.021-2.252-2.308 0-1.249 1.013-2.27 2.252-2.27h17.416c1.238 0 2.252 1.021 2.252 2.27M212.95 87.024c-.263 4.427-4.242 7-7.808 7.53-.6.077-1.239.114-1.84.114-3.677 0-7.318-1.551-9.57-4.238-.789-.946-.676-2.347.262-3.18a2.193 2.193 0 0 1 3.116.266c1.651 1.93 4.616 2.99 7.394 2.573 1.84-.265 3.866-1.4 3.979-3.33.112-1.704-1.202-3.293-3.04-3.71-.751-.188-1.615-.226-2.478-.264-1.952-.114-4.129-.227-6.156-1.628-2.74-1.892-4.09-5.336-3.265-8.363.9-3.293 3.903-5.829 7.47-6.359 3.452-.492 7.13.492 9.796 2.574.938.757 1.126 2.195.375 3.179a2.279 2.279 0 0 1-3.153.378c-1.689-1.362-4.129-2.005-6.418-1.665-1.764.265-3.34 1.514-3.754 3.104-.375 1.324.45 2.725 1.502 3.444.976.68 2.29.756 3.828.832 1.051.076 2.102.114 3.228.379 3.941.87 6.756 4.503 6.531 8.364M118.674 96.119a3.617 3.617 0 0 0-.725-.06c-3.004-.004-6.008-.002-9.012-.002-2.97 0-5.939-.002-8.908.002-.26 0-.524.014-.776.066-.754.158-1.13.661-1.126 1.468.004.81.38 1.306 1.13 1.462.237.049.483.07.724.07 5.99.003 11.982.004 17.973-.002.291 0 .595-.028.872-.113.743-.228 1.016-.713.967-1.631-.034-.649-.442-1.12-1.12-1.26M118.783 100.497a2.833 2.833 0 0 0-.77-.084c-6.025-.004-12.051-.004-18.077-.003-.207 0-.42 0-.622.036-.722.13-1.163.629-1.188 1.318-.033.918.283 1.41 1.071 1.613.248.064.514.081.771.082 3.004.005 6.008.003 9.012.003 3.005 0 6.009.002 9.013-.004.257 0 .523-.02.77-.088.716-.194 1.027-.644 1.031-1.428.004-.793-.294-1.24-1.01-1.445M103.673 106.873c1.044.945 2.041 1.943 3.105 2.863.462.399 1.003.79 1.574.956 1.234.359 2.158-.325 2.992-1.156a37.4 37.4 0 0 1 1.623-1.547c1.096-.968 2.212-1.913 3.318-2.87.106-.092.195-.204.335-.352h-15.382c.887.764 1.676 1.418 2.435 2.106"/>
        <path fill="#1D1C1B" d="M106.984 94.732l1.821-3.586h.034s-5.67-.01-8.657.013c-.444.003-.711-.143-.813-.545-.199-.791-.464-1.583-.525-2.389-.193-2.537-.37-5.075-1.489-7.411-.83-1.733-1.734-3.428-2.612-5.137-.9-1.754-1.947-3.446-2.688-5.266-3.149-7.73-.807-16.517 5.69-21.702 10.324-8.24 25.58-3.323 29.322 9.494a18.71 18.71 0 0 1 .77 5.133h3.635c-.004-4.883-1.42-9.369-4.418-13.309-4.958-6.519-11.592-9.515-19.707-8.963-4.782.326-8.973 2.235-12.64 5.365-7.592 6.481-9.93 17.914-5.416 26.857 1.353 2.68 2.815 5.303 4.2 7.967.761 1.463 1.344 2.985 1.443 4.672.077 1.308.187 2.62.394 3.913.297 1.86 1.024 3.527 2.576 4.699.228.172.56.283.844.285"/>
    </g>
</svg>
