<svg xmlns="http://www.w3.org/2000/svg" xmlns:xlink="http://www.w3.org/1999/xlink" width="300" height="150" viewBox="0 0 300 150">
    <defs>
        <path id="a" d="M60.728.294H0V60.59h60.728V.294z"/>
    </defs>
    <g fill="none" fill-rule="evenodd">
        <path fill="#FFF" d="M0 0h300v150H0z"/>
        <g transform="translate(63 44.116)">
            <mask id="b" fill="#fff">
                <use xlink:href="#a"/>
            </mask>
            <path fill="#1D1C1B" d="M30.364 3.16c-15.151 0-27.478 12.239-27.478 27.282 0 15.044 12.327 27.283 27.478 27.283 15.151 0 27.478-12.24 27.478-27.283C57.842 15.4 45.515 3.16 30.364 3.16m0 57.432C13.621 60.59 0 47.066 0 30.442 0 13.818 13.62.293 30.364.293c16.743 0 30.364 13.525 30.364 30.15 0 16.623-13.621 30.148-30.364 30.148" mask="url(#b)"/>
        </g>
        <path fill="#1D1C1B" d="M133.786 76.767v5.994l6.847-7.09c.329-.342.609-.595.84-.758.23-.163.538-.245.922-.245.5 0 .906.146 1.216.437.309.292.464.647.464 1.067 0 .506-.263 1.007-.788 1.505l-4.239 3.988 4.886 6.95c.344.482.602.903.775 1.265.172.361.258.713.258 1.055 0 .381-.151.712-.452.991-.301.28-.71.42-1.228.42-.485 0-.88-.103-1.185-.309a2.652 2.652 0 0 1-.776-.822c-.211-.342-.4-.653-.564-.932l-4.122-6.298-2.854 2.717v3.534c0 .715-.164 1.245-.493 1.591-.329.346-.752.52-1.269.52-.297 0-.583-.078-.857-.234a1.636 1.636 0 0 1-.634-.63 2.044 2.044 0 0 1-.2-.757 16.75 16.75 0 0 1-.035-1.248v-12.71c0-.7.155-1.225.464-1.575.31-.35.73-.525 1.262-.525.525 0 .95.173 1.275.519.324.346.487.872.487 1.58M148.22 90.236V76.767c0-.7.16-1.225.481-1.574.322-.35.736-.525 1.246-.525.524 0 .949.173 1.274.519.325.346.487.873.487 1.58v13.469c0 .708-.162 1.236-.487 1.586-.325.35-.75.524-1.274.524-.501 0-.914-.176-1.24-.53-.324-.354-.487-.88-.487-1.58M166.788 77.817h-3.805v12.419c0 .715-.16 1.245-.481 1.591-.321.346-.737.52-1.245.52-.517 0-.938-.176-1.263-.525-.325-.35-.487-.879-.487-1.586v-12.42H155.7c-.595 0-1.037-.13-1.327-.39-.29-.26-.434-.605-.434-1.032 0-.443.15-.793.452-1.05.302-.256.738-.384 1.31-.384h11.086c.603 0 1.051.132 1.345.396.294.265.44.61.44 1.038 0 .427-.148.771-.446 1.032-.298.26-.744.39-1.339.39M184.71 86.656c0 .544-.135 1.133-.405 1.766-.27.634-.695 1.256-1.274 1.866-.58.61-1.32 1.106-2.22 1.487-.9.38-1.95.571-3.147.571-.909 0-1.735-.086-2.479-.256a6.993 6.993 0 0 1-2.025-.799 6.827 6.827 0 0 1-1.674-1.428 8.5 8.5 0 0 1-1.163-1.802 9.352 9.352 0 0 1-.722-2.129c-.16-.753-.241-1.554-.241-2.401 0-1.376.202-2.609.605-3.697.403-1.088.98-2.02 1.732-2.793a7.559 7.559 0 0 1 2.643-1.767 8.612 8.612 0 0 1 3.23-.606c1.393 0 2.634.276 3.723.828 1.088.552 1.922 1.234 2.501 2.046.58.813.87 1.58.87 2.304 0 .396-.142.745-.424 1.05a1.344 1.344 0 0 1-1.021.454c-.447 0-.781-.105-1.004-.315-.223-.21-.472-.571-.746-1.085-.454-.847-.989-1.48-1.603-1.9-.615-.42-1.373-.63-2.273-.63-1.433 0-2.574.54-3.423 1.62-.85 1.081-1.275 2.617-1.275 4.607 0 1.33.188 2.436.564 3.318.376.882.908 1.541 1.597 1.976.69.436 1.496.654 2.42.654 1.002 0 1.85-.247 2.543-.741.692-.494 1.215-1.218 1.567-2.175.149-.451.333-.818.552-1.102.22-.284.572-.426 1.057-.426.415 0 .771.144 1.069.432.298.288.446.645.446 1.073M191.358 76.767v4.898h7.528v-4.898c0-.7.159-1.224.476-1.574.317-.35.734-.525 1.25-.525.525 0 .95.173 1.275.519.324.346.487.872.487 1.58v13.469c0 .707-.164 1.236-.493 1.586-.329.35-.752.524-1.269.524-.524 0-.943-.177-1.256-.53-.313-.354-.47-.88-.47-1.58v-5.75h-7.528v5.75c0 .707-.165 1.236-.493 1.586-.33.35-.752.524-1.269.524-.524 0-.943-.177-1.256-.53-.314-.354-.47-.88-.47-1.58V76.767c0-.7.154-1.224.463-1.574.31-.35.73-.525 1.263-.525.524 0 .95.173 1.274.519.325.346.488.872.488 1.58M217.466 77.63h-7.857v4.198h7.234c.533 0 .93.119 1.192.356.263.237.394.55.394.938 0 .389-.13.706-.388.95-.258.245-.657.368-1.198.368h-7.234v4.863h8.127c.548 0 .961.126 1.239.378.278.254.417.59.417 1.01 0 .404-.14.732-.417.985-.278.253-.691.379-1.24.379h-9.477c-.76 0-1.306-.167-1.638-.501-.333-.335-.5-.875-.5-1.621V77.082c0-.498.075-.904.224-1.219a1.38 1.38 0 0 1 .699-.688c.317-.143.722-.215 1.215-.215h9.208c.556 0 .969.122 1.239.367.27.245.405.565.405.962 0 .404-.135.729-.405.974s-.683.367-1.24.367M226.709 76.744l6.706 10.075V76.65c0-.66.143-1.156.429-1.486.285-.33.67-.496 1.156-.496.501 0 .897.165 1.186.496.29.33.435.826.435 1.486v13.446c0 1.5-.626 2.25-1.88 2.25-.312 0-.594-.045-.845-.134a2.148 2.148 0 0 1-.704-.426 4.13 4.13 0 0 1-.611-.682c-.188-.26-.376-.526-.564-.798l-6.541-9.959v10.017c0 .653-.153 1.147-.458 1.481-.306.334-.697.501-1.175.501-.493 0-.889-.169-1.186-.507-.298-.338-.447-.83-.447-1.475V77.175c0-.56.063-.999.188-1.317.15-.35.396-.636.74-.858a2.026 2.026 0 0 1 1.116-.332c.313 0 .582.05.805.152.223.101.418.237.587.408.168.17.34.393.517.664.176.273.358.556.546.852M135.429 60.203h-2.627v8.572c0 .494-.11.86-.332 1.1a1.12 1.12 0 0 1-.86.357c-.356 0-.647-.12-.871-.362-.224-.241-.336-.606-.336-1.095v-8.572h-2.627c-.411 0-.717-.09-.917-.27a.913.913 0 0 1-.3-.712c0-.306.105-.547.313-.725.208-.177.51-.265.904-.265h7.653c.416 0 .725.09.928.273a.918.918 0 0 1 .304.717.902.902 0 0 1-.308.712c-.206.18-.514.27-.924.27M139.928 62.545v6.351c0 .44-.105.773-.316.999-.21.225-.478.337-.802.337-.325 0-.588-.115-.79-.345-.204-.231-.305-.562-.305-.99v-6.288c0-.434.101-.761.304-.981.203-.22.466-.33.79-.33.325 0 .592.11.803.33.21.22.316.526.316.917m-1.094-2.27c-.308 0-.572-.093-.79-.281-.22-.188-.33-.454-.33-.797 0-.312.113-.568.337-.77.225-.2.486-.301.783-.301.286 0 .54.091.762.274.221.182.332.448.332.797 0 .337-.108.602-.324.793-.216.19-.473.285-.77.285M149.576 65.926v2.922c0 .462-.105.808-.316 1.039-.211.23-.49.346-.835.346-.336 0-.607-.116-.815-.346-.208-.231-.312-.577-.312-1.039v-3.502c0-.552-.02-.981-.057-1.287a1.384 1.384 0 0 0-.308-.753c-.168-.196-.432-.294-.794-.294-.725 0-1.202.247-1.431.74-.23.494-.345 1.203-.345 2.126v2.97c0 .456-.104.801-.312 1.035-.208.233-.482.35-.823.35-.335 0-.61-.117-.823-.35-.213-.234-.32-.579-.32-1.035v-6.287c0-.413.096-.727.288-.942.192-.214.444-.321.758-.321.302 0 .555.1.758.302.203.2.304.479.304.832v.21c.383-.456.794-.792 1.232-1.006a3.271 3.271 0 0 1 1.46-.322c.556 0 1.034.11 1.434.33.4.22.73.553.99.998.372-.451.772-.785 1.2-1.003.426-.217.9-.325 1.418-.325.605 0 1.127.117 1.565.354.438.236.764.574.98 1.014.19.397.284 1.022.284 1.876v4.29c0 .462-.105.808-.316 1.039-.21.23-.489.346-.835.346-.335 0-.61-.117-.823-.35-.214-.234-.32-.579-.32-1.035v-3.695c0-.472-.02-.85-.06-1.135a1.3 1.3 0 0 0-.33-.716c-.177-.193-.448-.29-.81-.29-.292 0-.569.086-.831.258a1.753 1.753 0 0 0-.612.692c-.162.37-.243 1.025-.243 1.964M158.753 65.057h4.013c-.054-.752-.258-1.314-.612-1.687s-.82-.559-1.399-.559c-.55 0-1.004.19-1.358.567-.353.379-.568.938-.644 1.679m4.33 1.247h-4.33c.005.5.107.94.304 1.32.197.382.46.668.787.862.327.193.687.29 1.082.29a2.37 2.37 0 0 0 1.362-.382c.205-.132.394-.273.567-.423.173-.15.398-.354.673-.612.113-.097.276-.145.487-.145.226 0 .41.062.55.185.141.123.212.298.212.523 0 .199-.079.431-.235.696-.158.266-.394.522-.71.765-.316.245-.713.447-1.192.608-.478.161-1.028.242-1.65.242-1.421 0-2.526-.403-3.315-1.208-.79-.805-1.184-1.896-1.184-3.276 0-.65.097-1.252.292-1.807a3.975 3.975 0 0 1 .851-1.429 3.686 3.686 0 0 1 1.378-.913 4.977 4.977 0 0 1 1.817-.319c.864 0 1.606.182 2.225.543.619.363 1.082.832 1.39 1.405.308.574.462 1.16.462 1.755 0 .553-.16.911-.478 1.075-.319.164-.768.245-1.346.245M170.744 61.49h.527v-.66c0-.686.087-1.232.263-1.637.176-.406.473-.7.892-.886.419-.185.993-.278 1.723-.278 1.291 0 1.937.314 1.937.942a.741.741 0 0 1-.202.524.633.633 0 0 1-.479.217c-.086 0-.235-.016-.446-.049a3.669 3.669 0 0 0-.535-.048c-.4 0-.656.117-.77.35-.114.234-.17.568-.17 1.003v.523h.543c.843 0 1.264.252 1.264.756 0 .36-.112.588-.336.685-.224.096-.534.144-.928.144h-.543v5.82c0 .435-.104.766-.312.995a1.043 1.043 0 0 1-.807.342c-.314 0-.574-.115-.782-.342-.209-.229-.312-.56-.312-.995v-5.82h-.609c-.33 0-.583-.073-.762-.22a.711.711 0 0 1-.267-.576c0-.526.37-.79 1.11-.79M182.296 65.765c0-.896-.198-1.594-.596-2.093-.397-.499-.93-.748-1.6-.748-.433 0-.814.11-1.144.334-.33.222-.584.551-.762.986-.178.435-.268.941-.268 1.521 0 .574.088 1.076.264 1.505.175.43.427.758.754.986.327.229.712.343 1.155.343.67 0 1.204-.251 1.601-.753.398-.502.596-1.195.596-2.08m2.222 0a5.17 5.17 0 0 1-.308 1.81 4.002 4.002 0 0 1-.892 1.425c-.39.397-.855.702-1.395.914-.54.211-1.148.317-1.824.317-.67 0-1.273-.107-1.808-.321a3.98 3.98 0 0 1-2.282-2.338 5.151 5.151 0 0 1-.304-1.808c0-.665.103-1.274.308-1.827.205-.553.5-1.025.884-1.417a3.9 3.9 0 0 1 1.394-.906 4.962 4.962 0 0 1 1.808-.317c.67 0 1.278.107 1.824.322.546.214 1.013.52 1.403.917.389.398.685.87.887 1.417.203.547.305 1.151.305 1.811M188.458 67.061v1.835c0 .446-.106.78-.317 1.003-.21.222-.478.333-.802.333-.32 0-.582-.112-.787-.337-.205-.226-.308-.558-.308-.999V62.78c0-.988.36-1.481 1.079-1.481.367 0 .632.115.794.346.162.23.251.571.268 1.022.264-.45.536-.791.814-1.022.279-.231.65-.346 1.115-.346.465 0 .916.115 1.354.346.438.23.657.536.657.918a.87.87 0 0 1-.28.664c-.186.174-.388.261-.604.261-.081 0-.277-.05-.587-.149-.311-.1-.586-.149-.824-.149-.324 0-.589.085-.794.254-.205.169-.365.42-.478.752a5.207 5.207 0 0 0-.235 1.188 18.14 18.14 0 0 0-.065 1.678M108.131 75.165c-2.868.014-5.737.064-8.604.025-1.46-.02-2.918-.182-4.373-.313a135.3 135.3 0 0 1-4.185-.449c-1.205-.146-2.404-.344-3.61-.492-.566-.07-1.141-.08-1.713-.11a1.204 1.204 0 0 0-1.167.638c-.692 1.227-.762 2.494-.108 3.758.272.526.737.804 1.352.763 1.68-.111 3.366-.182 5.04-.355 2.44-.253 4.872-.584 7.308-.878.231-.028.469-.018.7-.055.764-.124 1.407.106 1.951.637.367.359.723.73 1.097 1.08.605.568 1.318.827 2.162.836 1.438.016 2.84-.23 4.246-.466 2.003-.335 4.014-.654 5.945-1.296.991-.33 1.955-.756 2.9-1.204.387-.183.716-.516 1.029-.824.322-.318.417-.74.374-1.191-.024-.248-.13-.364-.405-.36-3.313.059-6.626.108-9.939.16v.096"/>
        <path fill="#1D1C1B" d="M95.673 49.793c.061.298.142.593.18.894.325 2.576.65 5.152.957 7.73.1.835.158 1.677.205 2.517.05.883-.288 1.62-.947 2.212-.225.202-.447.408-.684.595-.658.518-.929 1.176-.907 2.017.082 3.274.16 6.55.177 9.824.009 1.785.366 3.508.686 5.245.163.884.247 1.784.329 2.68.057.63-.268 1.098-.82 1.371-1.114.55-2.246.545-3.35-.027-.519-.27-.843-.723-.768-1.325.159-1.273.325-2.547.556-3.809.243-1.327.455-2.65.476-4.005.052-3.347.121-6.694.213-10.04.022-.823-.285-1.435-.9-1.947-.362-.301-.71-.623-1.025-.97-.402-.446-.618-.997-.583-1.59.078-1.272.175-2.544.318-3.81.184-1.635.42-3.266.635-4.898.1-.751.197-1.502.307-2.251.022-.146.1-.283.15-.425l.134-.007c.045.23.133.463.127.692-.051 2.07-.122 4.14-.182 6.21a101.29 101.29 0 0 0-.045 2.528c-.001.187.05.382.122.555.037.088.174.134.266.199.064-.094.172-.181.185-.281.043-.322.047-.648.072-.972.156-2.015.305-4.031.474-6.045.071-.85.182-1.697.284-2.544.015-.121.082-.235.125-.353l.114-.007c.042.147.115.293.123.442.032.59.05 1.18.062 1.77.054 2.515.105 5.031.158 7.548.001.06.004.12.007.18.009.21.1.34.332.341.234.002.321-.122.327-.338.013-.445.033-.89.045-1.336.067-2.611.13-5.224.202-7.836.007-.25.074-.5.112-.75l.136-.009c.05.135.13.266.146.405.104.92.206 1.84.284 2.762.143 1.703.271 3.406.402 5.11.04.515.053 1.034.105 1.548.013.13.126.252.194.377.104-.1.254-.183.302-.305.068-.173.088-.375.084-.564-.05-2.324-.11-4.646-.165-6.97-.014-.577-.037-1.155-.03-1.733.002-.204.08-.406.123-.609l.17.004"/>
        <path fill="#FEFEFE" d="M93.213 77.11a.77.77 0 0 1-.885-.629.765.765 0 0 1 .633-.878.764.764 0 0 1 .252 1.507"/>
    </g>
</svg>
