<svg xmlns="http://www.w3.org/2000/svg" xmlns:xlink="http://www.w3.org/1999/xlink" width="300" height="150" viewBox="0 0 300 150">
    <defs>
        <path id="a" d="M0 .885v21.589h2.789V.884H0z"/>
        <path id="c" d="M.56 22.754h15.358V.048H.56z"/>
        <path id="e" d="M.183 16.967h13.685V.812H.183v16.155z"/>
    </defs>
    <g fill="none" fill-rule="evenodd">
        <path fill="#FFF" d="M0 0h300v150H0z"/>
        <path fill="#1D1C1B" d="M137.14 52.742c.223-.104.386-.184.552-.256 1.309-.568 2.681-.672 4.074-.501a8.486 8.486 0 0 1 1.735.39c.731.253.992 1.157.583 1.81-.333.535-.857.68-1.59.55-.72-.127-1.455-.245-2.183-.24-1.11.01-2.086.394-2.832 1.285-.949 1.13-1.102 2.839-.315 4.012.361.535.877.882 1.444 1.174.694.356.934.915.753 1.674-.052.22-.113.44-.137.664-.125 1.128.067 1.99 1.446 2.427.506.162 1.057.23 1.59.251.786.031 1.225.464 1.422 1.138.2.683.66 1.135 1.296 1.406a4.365 4.365 0 0 0 1.896.354c.766-.027 1.244-.506 1.244-1.279 0-8.293.004-16.588-.01-24.882-.002-.51-.147-1.021-.241-1.529-.04-.22-.184-.348-.42-.39-.715-.125-1.426-.073-2.122.088-1.643.38-3 1.147-3.658 2.821-.205.522-.624.795-1.158.876-1.85.277-3.182 1.74-3.65 3.485-.27 1-.256 2.015-.114 3.027.078.546.257 1.079.396 1.645m24.784 4.08c-.28.223-.524.438-.787.626-1.417 1.016-2.97 1.53-4.733 1.265-.9-.136-1.406-1.005-1.037-1.802.262-.567.752-.806 1.552-.714a3.352 3.352 0 0 0 2.036-.405c1.572-.859 2.596-2.118 2.965-3.917.307-1.491.414-2.958-.158-4.398-.611-1.54-1.703-2.566-3.364-2.875-.652-.121-1.046-.456-1.32-1.05-.2-.435-.46-.871-.795-1.206-1.305-1.306-2.947-1.682-4.733-1.588-.333.017-.58.188-.635.536-.081.511-.199 1.026-.199 1.538-.012 8.22-.009 16.44-.009 24.658 0 .076-.003.152.001.228.035.66.506 1.153 1.165 1.149a6.415 6.415 0 0 0 1.412-.15c.542-.127 1.063-.344 1.427-.839-.086-.064-.155-.114-.221-.167-1.345-1.071-1.83-2.511-1.721-4.172.045-.697.61-1.147 1.3-1.157.604-.008 1.134.45 1.25 1.102.042.233.049.474.064.71.065 1.084.804 1.84 1.812 1.732.543-.059 1.093-.252 1.588-.491.578-.278.853-.825.835-1.468a7.688 7.688 0 0 0-.157-1.313c-.095-.47-.095-.925.238-1.282.213-.23.508-.397.79-.549 1.65-.892 1.998-2.597 1.434-4m-14.527 14.646h-1.365c-.09-.024-.181-.056-.273-.07-1.473-.232-2.789-.769-3.742-1.98-.223-.285-.358-.686-.64-.865-.286-.183-.709-.14-1.064-.228-2.473-.619-4.033-2.536-3.651-5.303.013-.095-.08-.23-.16-.306-.32-.292-.695-.532-.974-.855-1.668-1.931-1.897-4.103-.852-6.369.309-.668.34-1.174.093-1.841-.703-1.898-.947-3.865-.486-5.86.643-2.779 2.265-4.708 5.029-5.599a.695.695 0 0 0 .31-.245c.292-.39.533-.82.856-1.18 1.248-1.39 2.837-2.177 4.66-2.468 1.486-.236 2.978-.363 4.203.59.51-.217.95-.457 1.42-.587.955-.264 1.93-.18 2.892-.01 2.37.42 4.295 1.53 5.552 3.654.066.113.212.197.339.255.547.253 1.139.43 1.644.745 2.278 1.423 3.355 3.572 3.55 6.19.135 1.82-.247 3.567-.944 5.246-.075.18-.056.305.042.471.887 1.489 1.165 3.08.71 4.765-.347 1.294-1.11 2.304-2.195 3.082a.512.512 0 0 0-.183.356c-.01.356.059.714.038 1.067-.072 1.217-.524 2.262-1.459 3.076-.862.748-1.886 1.115-2.997 1.268-.249.034-.437.098-.55.357-.094.214-.247.406-.392.594-.78 1.002-1.84 1.546-3.045 1.844-.321.079-.646.138-.97.206h-1.366c-.131-.038-.269-.063-.393-.116-.559-.236-1.112-.482-1.685-.732-.283.16-.617.38-.978.542-.308.138-.648.206-.974.306"/>
        <path fill="#1D1C1B" d="M147.398 71.469c.325-.1.666-.169.974-.307.36-.16.695-.38.978-.54.573.25 1.126.495 1.685.732.124.053.262.078.393.115h-4.03zM145.57 63.569c-.005.836-.478 1.402-1.114 1.457-.76.064-1.27-.337-1.42-1.103-.093-.488-.164-.983-.317-1.453-.389-1.192-1.196-2.01-2.358-2.47-.484-.191-.927-.405-1.11-.954-.29-.875.473-1.814 1.372-1.628 1.087.224 2.005.792 2.805 1.544 1.363 1.278 1.986 2.9 2.141 4.607M142.015 49.623c-.575.033-1.067-.124-1.364-.64-.485-.844.028-1.8 1.004-1.911.334-.039.672-.043.998-.109.851-.173 1.392-.698 1.64-1.527.156-.521.444-.92 1.004-1.034.992-.2 1.73.626 1.487 1.645-.433 1.803-2.06 3.258-3.9 3.485-.29.035-.58.061-.87.091M158.887 52.261c-2.271-.018-4.213-1.332-5.096-3.506-.205-.508-.37-1.04-.497-1.574-.139-.59.18-1.174.712-1.426a1.24 1.24 0 0 1 1.534.406c.14.192.195.45.289.677.201.489.35 1.007.614 1.457.623 1.06 1.592 1.485 2.805 1.35.484-.056.924.002 1.294.357.677.652.402 1.842-.504 2.088-.372.101-.767.117-1.15.171"/>
        <g transform="translate(68 82.312)">
            <mask id="b" fill="#fff">
                <use xlink:href="#a"/>
            </mask>
            <path fill="#1D1C1B" d="M1.376.885c.372 0 .7.137.986.41.285.273.427.608.427 1.005v18.796c0 .372-.137.695-.41.968-.273.273-.606.41-1.003.41-.372 0-.694-.137-.966-.41a1.32 1.32 0 0 1-.41-.968V2.3c0-.372.135-.701.41-.987.272-.285.594-.428.966-.428" mask="url(#b)"/>
        </g>
        <path fill="#1D1C1B" d="M83.88 91.35c-1.786 0-3.46.98-5.02 2.94v9.119c0 .372-.137.694-.411.968-.272.273-.594.41-.966.41s-.694-.137-.968-.41a1.323 1.323 0 0 1-.409-.968V90.344c0-.396.13-.73.391-1.005a1.3 1.3 0 0 1 .986-.41c.372 0 .694.131.966.391.274.262.41.602.41 1.024v1.266c.817-.844 1.524-1.453 2.12-1.825 1.138-.67 2.236-1.004 3.29-1.004 1.054 0 1.916.155 2.585.466.67.31 1.24.75 1.71 1.32.942 1.117 1.414 2.506 1.414 4.17v8.672c0 .372-.137.694-.41.968-.272.273-.594.41-.966.41s-.695-.137-.967-.41a1.323 1.323 0 0 1-.41-.968v-8.374c0-1.142-.26-2.042-.78-2.7-.52-.656-1.376-.986-2.566-.986M100.278 102.479c.545 0 .936-.043 1.171-.13.236-.088.49-.13.763-.13.272 0 .521.105.744.315.222.21.334.522.334.931 0 .408-.199.701-.594.874-.868.397-1.612.596-2.232.596-.62 0-1.185-.031-1.692-.093a3.832 3.832 0 0 1-1.47-.503c-1.115-.644-1.672-1.787-1.672-3.425v-9.453h-2.156c-.373 0-.57-.199-.596-.596 0-.173.099-.335.297-.483l4.128-4.057c.174-.174.348-.267.52-.28a.452.452 0 0 1 .41.168.695.695 0 0 1 .148.447v2.418h3.46c.345 0 .631.112.855.335.222.224.334.509.334.856 0 .348-.112.633-.334.856-.224.224-.51.336-.856.336h-3.46v9.23c0 .77.237 1.292.708 1.564.248.149.646.224 1.19.224M112.661 91.125c-1.81 0-3.123.808-3.941 2.42-.298.572-.484 1.253-.558 2.047h8.999c-.074-1.439-.607-2.58-1.6-3.424-.793-.694-1.76-1.043-2.9-1.043m-2.919 9.995c.88.807 2.096 1.21 3.645 1.21 1.55 0 2.87-.247 3.96-.745.347-.173.658-.266.93-.28.272-.012.527.093.763.317.235.224.353.472.353.745 0 .546-.217.93-.651 1.153-.434.223-.825.422-1.171.595-.348.176-.72.324-1.117.448-.916.248-1.982.372-3.198.372-2.503 0-4.443-.7-5.82-2.102-1.376-1.403-2.063-3.394-2.063-5.975 0-2.233.581-4.095 1.748-5.584 1.314-1.661 3.161-2.493 5.54-2.493 2.282 0 4.078.768 5.392 2.308 1.24 1.439 1.86 3.237 1.86 5.397 0 .372-.13.695-.39.968s-.59.408-.986.408h-10.375c.173 1.366.7 2.451 1.58 3.258M124.264 82.62a1.4 1.4 0 0 1 1.005-.39c.395 0 .724.13.985.39.26.26.39.59.39.987v19.802c0 .372-.13.694-.39.967-.26.274-.59.41-.985.41-.398 0-.733-.136-1.005-.41a1.323 1.323 0 0 1-.409-.967V83.607c0-.397.137-.726.41-.986M132.296 82.62a1.4 1.4 0 0 1 1.005-.39c.396 0 .725.13.986.39.26.26.39.59.39.987v19.802c0 .372-.13.694-.39.967-.261.274-.59.41-.986.41-.398 0-.732-.136-1.005-.41a1.323 1.323 0 0 1-.409-.967V83.607c0-.397.137-.726.41-.986M140.217 89.32a1.4 1.4 0 0 1 1.005-.391c.396 0 .718.131.966.391s.372.602.372 1.024v13.065c0 .372-.124.694-.372.968-.248.273-.57.41-.966.41-.398 0-.732-.137-1.005-.41a1.328 1.328 0 0 1-.409-.968V90.344c0-.422.137-.764.41-1.024zm2.64-4.969c0 .447-.148.819-.446 1.118a1.517 1.517 0 0 1-1.116.445h-.185c-.446 0-.812-.149-1.097-.445-.286-.299-.429-.671-.429-1.118v-.11c0-.449.15-.82.447-1.118a1.47 1.47 0 0 1 1.08-.446h.184c.447 0 .819.148 1.116.446.298.297.446.67.446 1.117v.111z"/>
        <g transform="translate(145.98 82.181)">
            <mask id="d" fill="#fff">
                <use xlink:href="#c"/>
            </mask>
            <path fill="#1D1C1B" d="M13.167 11.476c-1.39-1.539-3-2.295-4.834-2.272-2.332 0-3.856 1.03-4.575 3.09-.248.695-.385 1.49-.41 2.383 0 1.736.471 3.114 1.414 4.13.868.92 2.058 1.366 3.571 1.341 1.834 0 3.445-.756 4.834-2.271v-6.401zm0 8.97c-1.514 1.54-3.248 2.308-5.206 2.308-1.935 0-3.62-.683-5.058-2.048-1.537-1.537-2.32-3.548-2.343-6.03 0-2.431.78-4.429 2.343-5.992C4.315 7.27 6 6.57 7.96 6.581c1.958.013 3.692.788 5.206 2.326V1.426c0-.396.13-.726.39-.987.26-.26.588-.391.986-.391.396 0 .724.131.986.391.258.261.39.59.39.987v19.801c0 .373-.132.695-.39.969-.262.272-.59.41-.986.41-.398 0-.725-.138-.985-.41a1.355 1.355 0 0 1-.391-.969v-.781z" mask="url(#d)"/>
        </g>
        <path fill="#1D1C1B" d="M173.054 91.125c-1.81 0-3.124.808-3.942 2.42-.297.572-.483 1.253-.557 2.047h8.998c-.073-1.439-.607-2.58-1.599-3.424-.793-.694-1.76-1.043-2.9-1.043m-2.919 9.995c.88.807 2.095 1.21 3.645 1.21 1.55 0 2.87-.247 3.96-.745.347-.173.657-.266.93-.28.272-.012.526.093.763.317.235.224.352.472.352.745 0 .546-.217.93-.65 1.153-.435.223-.826.422-1.172.595-.348.176-.72.324-1.116.448-.917.248-1.982.372-3.198.372-2.504 0-4.443-.7-5.82-2.102-1.376-1.403-2.063-3.394-2.063-5.975 0-2.233.58-4.095 1.748-5.584 1.313-1.661 3.161-2.493 5.54-2.493 2.282 0 4.078.768 5.392 2.308 1.24 1.439 1.86 3.237 1.86 5.397 0 .372-.13.695-.39.968s-.59.408-.986.408h-10.375c.173 1.366.7 2.451 1.58 3.258M191.797 91.35c-1.785 0-3.459.98-5.02 2.94v9.119c0 .372-.136.694-.41.968-.272.273-.594.41-.966.41s-.694-.137-.968-.41a1.323 1.323 0 0 1-.409-.968V90.344c0-.396.13-.73.391-1.005a1.3 1.3 0 0 1 .986-.41c.372 0 .694.131.966.391.274.262.41.602.41 1.024v1.266c.817-.844 1.524-1.453 2.12-1.825 1.139-.67 2.236-1.004 3.29-1.004 1.054 0 1.916.155 2.585.466.67.31 1.24.75 1.711 1.32.941 1.117 1.413 2.506 1.413 4.17v8.672c0 .372-.137.694-.41.968-.272.273-.594.41-.966.41s-.695-.137-.967-.41a1.323 1.323 0 0 1-.41-.968v-8.374c0-1.142-.26-2.042-.779-2.7-.521-.656-1.376-.986-2.567-.986"/>
        <g transform="translate(201.356 87.968)">
            <mask id="f" fill="#fff">
                <use xlink:href="#e"/>
            </mask>
            <path fill="#1D1C1B" d="M8.551 14.361a6.73 6.73 0 0 0 3.235-.819c.348-.198.67-.303.968-.316.296-.013.557.118.78.391.222.273.334.59.334.95 0 .359-.235.688-.706.985-1.438.944-3.05 1.416-4.834 1.416-2.256 0-4.165-.709-5.727-2.122C.964 13.332.159 11.346.184 8.89c0-2.457.805-4.442 2.417-5.957C4.138 1.496 6.047.79 8.328.813c1.214 0 2.213.154 2.993.466.782.31 1.4.62 1.86.93.458.31.687.65.687 1.023 0 .372-.112.683-.334.93-.223.249-.445.372-.67.372-.346 0-.707-.097-1.078-.296-1.041-.572-2.12-.844-3.235-.82-1.784 0-3.168.503-4.146 1.507-.98 1.006-1.47 2.327-1.47 3.965 0 1.637.49 2.958 1.47 3.964.978 1.005 2.362 1.507 4.146 1.507" mask="url(#f)"/>
        </g>
        <path fill="#1D1C1B" d="M225.192 91.125c-1.81 0-3.124.808-3.942 2.42-.297.572-.484 1.253-.557 2.047h8.998c-.074-1.439-.607-2.58-1.6-3.424-.793-.694-1.759-1.043-2.9-1.043m-2.918 9.995c.879.807 2.095 1.21 3.644 1.21 1.55 0 2.87-.247 3.96-.745.347-.173.658-.266.93-.28.273-.012.527.093.763.317.235.224.353.472.353.745 0 .546-.217.93-.651 1.153-.434.223-.825.422-1.171.595-.348.176-.72.324-1.117.448-.916.248-1.982.372-3.198.372-2.503 0-4.442-.7-5.819-2.102-1.376-1.403-2.064-3.394-2.064-5.975 0-2.233.581-4.095 1.749-5.584 1.313-1.661 3.16-2.493 5.54-2.493 2.281 0 4.077.768 5.392 2.308 1.24 1.439 1.86 3.237 1.86 5.397 0 .372-.13.695-.391.968-.26.273-.59.408-.986.408h-10.374c.172 1.366.7 2.451 1.58 3.258"/>
    </g>
</svg>
