<svg xmlns="http://www.w3.org/2000/svg" xmlns:xlink="http://www.w3.org/1999/xlink" width="300" height="150" viewBox="0 0 300 150">
    <defs>
        <path id="a" d="M21.696 35.748H0V.11h21.696v35.637z"/>
        <path id="c" d="M0 35.987h149.762V.35H0z"/>
    </defs>
    <g fill="none" fill-rule="evenodd">
        <path fill="#FFF" d="M0 0h300v150H0z"/>
        <g transform="translate(70 57)">
            <g transform="translate(0 .24)">
                <mask id="b" fill="#fff">
                    <use xlink:href="#a"/>
                </mask>
                <path fill="#1D1C1B" d="M0 24.654V11.303C0 4.038 3.927.11 10.652.11c6.872 0 10.7 3.927 10.946 11.192h-6.97c-.196-3.142-1.375-4.418-4.025-4.418-2.111 0-3.338 1.374-3.338 4.418v13.351c0 2.945 1.178 4.32 3.338 4.32 2.7 0 3.927-1.276 4.123-4.32h6.97c-.147 7.216-4.123 11.094-11.093 11.094C3.927 35.748 0 31.87 0 24.654" mask="url(#b)"/>
            </g>
            <path fill="#1D1C1B" d="M25.132 24.354V1.038h7.265v23.316c0 3.141 1.227 4.86 3.681 4.86 2.455 0 3.682-1.719 3.682-4.86V1.038h7.265v23.316c0 7.265-4.074 11.633-10.947 11.633-6.871 0-10.946-4.368-10.946-11.633M69.703 28.772v6.626h-17.18V1.038h6.97v27.734zM87.226 7.664h-6.724v27.734h-7.168V7.664H66.61V1.038h20.616z"/>
            <mask id="d" fill="#fff">
                <use xlink:href="#c"/>
            </mask>
            <path fill="#1D1C1B" d="M90.515 35.398h6.97V1.038h-6.97zM125.465 1.038v34.36h-6.873L112.8 22.096l-3.092-8.394-.148.147c.54 4.32.884 10.75.884 14.58v6.97h-6.872V1.037h6.872l6.529 14.922c.834 2.16 1.62 4.418 2.454 6.578l.147-.148c-.589-4.32-.982-10.21-.982-13.4V1.038h6.873zM149.762 28.772v6.626H131.55V1.038h17.72v6.626h-10.75v7.118h9.768v6.381h-9.768v7.609z" mask="url(#d)"/>
            <path fill="#FEFEFE" d="M13.475 22.922c-1.398-.23-2.592-.883-3.578-1.954-.989-1.07-1.496-2.203-1.524-3.397-.041-1.723.958-2.908 3-3.554l105.66-.324 1.104 4.55-104.662 4.68z" mask="url(#d)"/>
            <path fill="#FEFEFE" d="M72.585 13.829l69.481-.113s-4.599 13.316-64.034 14.73l-18.3.436-.35-14.739" mask="url(#d)"/>
        </g>
    </g>
</svg>
