<svg xmlns="http://www.w3.org/2000/svg" width="300" height="150" viewBox="0 0 300 150">
    <g fill="none" fill-rule="evenodd">
        <path fill="#FFF" d="M0 0h300v150H0z"/>
        <g fill="#1D1C1B">
            <path d="M94.472 72.869c9.692-1.436 17.608-.635 21.47.13-.488.023-.975.062-1.463.068-4.267.054-8.519.326-12.747.914-2.61.364-5.185.904-7.702 1.713-.484.156-.55.38-.471.817.256 1.403.485 2.811.722 4.218.016.087.01.178.024.442-.296-.338-.52-.55-.692-.8-.36-.52-.663-1.08-1.046-1.58-.191-.251-.507-.405-.767-.603-.105.325-.303.652-.299.976.02 1.416.214 2.816.726 4.143.358.93.799 1.83 1.203 2.743l.151-.053.919-3.856.102.01c.188 1.31.356 2.622.568 3.928.643 3.969 1.818 7.73 4.307 10.977 1.537 2.005 3.415 3.628 5.514 5.01.117.077.234.155.333.266a16.513 16.513 0 0 1-4.792-2.276c-3.596-2.495-5.648-6.006-6.676-10.188-.04-.158-.08-.316-.11-.475-.14-.763-.233-1.465-1.089-1.92-.53-.282-.899-.98-1.196-1.563-1.118-2.198-1.667-4.534-1.511-7.013.012-.18.04-.36.077-.536.295-1.41.718-1.792 2.163-1.926-.07-.927-.13-1.857-.212-2.785-.274-3.098-.527-6.199-.843-9.293a393.877 393.877 0 0 0-1.133-10.078 247.144 247.144 0 0 0-1.318-8.955c-.4-2.423-.913-4.827-1.365-7.241a3.502 3.502 0 0 1-.058-.915c.064-.783.408-1.172 1.206-1.303 3.24-.53 6.474-1.104 9.727-1.54 4.071-.543 8.173-.694 12.28-.612 6.43.128 12.784.89 19.051 2.347.123.028.245.06.365.097.03.009.054.044.115.097-2.588 7.93-4.652 16.018-6.53 24.163.468-7.978 1.239-15.918 2.905-23.842-.609-.055-1.19-.12-1.773-.157-.92-.06-1.842-.08-2.76-.16-.387-.035-.548.09-.642.45-.935 3.598-2.006 7.165-2.792 10.794-.906 4.18-1.565 8.413-2.334 12.623-.024.133-.083.26-.162.504.212-8.26.559-16.386 1.71-24.483-.167-.024-.288-.054-.408-.055-1.32-.007-2.64 0-3.959-.017-.324-.004-.489.071-.531.43-.574 4.81-1.186 9.613-1.732 14.425-.234 2.06-.337 4.135-.536 6.207-.436-3.45-.804-6.912-.875-10.392-.072-3.49-.016-6.982-.016-10.588l-6.17.362c.768 7.915.642 15.766.02 23.613l-2.773-23.354-5.144.618c.478 3.947 1.022 7.81 1.394 11.69.372 3.88.57 7.776.752 11.677-1.622-7.67-3.49-15.262-5.783-22.787-.465.07-.892.125-1.316.197-.475.082-.946.18-1.457.276 2.573 11.375 4.005 22.877 5.38 34.42"/>
            <path d="M125.107 95.637c-1.163 5.028-4.767 11.755-12.086 13.776.045.035.077.074.118.089 2.299.822 4.117 2.229 5.536 4.243.826 1.174 1.882 2.189 2.862 3.248 1.32 1.429 3.013 1.994 4.913 2.042 1.894.05 3.737-.294 5.572-.703.166-.037.334-.063.629-.118-1.165 1.224-2.474 1.968-3.958 2.35-4.665 1.205-9.028.593-12.938-2.356-1.234-.931-2.095-2.172-2.634-3.638-.718-1.951-1.774-3.216-3.44-4.237-.837.544-1.617 1.134-2.47 1.588-1.434.76-3.03.904-4.618 1.04-2.284.193-4.575.369-6.765 1.118-2.81.96-5.072 2.733-7.031 4.915-.928 1.033-1.793 2.121-2.797 3.316.145-.623.242-1.102.37-1.573.912-3.377 2.416-6.426 5.02-8.832 2.273-2.101 4.965-3.075 8.071-2.927 1.426.068 2.855.037 4.283.04.314.001.63-.044 1.075-.077-5.995-2.585-8.996-7.397-10.602-13.32.185.283.367.57.555.85.191.286.384.57.582.85 1.95 2.749 4.258 5.132 7.261 6.714 5.865 3.09 11.42 2.372 16.63-1.57 2.215-1.676 3.95-3.805 5.427-6.148.144-.228.29-.453.435-.68"/>
            <path d="M125.574 66.781c-8.673-1.995-17.457-2.55-26.236-3.155 8.869-.69 17.72-.827 26.607.615 1.284-8.395 3.255-16.602 5.5-24.748-2.024 12.683-3.608 25.407-3.879 38.297.154.028.27.062.39.07 1.163.081 1.885.696 1.887 1.88.003 2.597-.544 5.074-2.181 7.169-.393.502-1.007.862-1.578 1.183-.298.167-.46.327-.543.64-.644 2.42-1.542 4.737-2.834 6.89-2.464 4.103-5.981 6.73-10.81 7.675.108-.102.143-.153.192-.176 5.03-2.466 8.381-6.47 10.507-11.57.561-1.348.989-2.75 1.493-4.122.068-.183.196-.407.357-.483 2.096-.99 3.061-2.767 3.46-4.936.088-.477.131-.973.106-1.455-.01-.229-.184-.56-.369-.637-.187-.078-.566.022-.712.181a8.499 8.499 0 0 0-1.026 1.39c-.556.93-1.066 1.886-1.646 2.83.048-5.841.54-11.652 1.315-17.538"/>
            <path d="M106.004 86.113c-.024.103-.046.185-.062.267-.153.812.092 1.195.889 1.376.194.043.403.041.581.117.265.115.574.223.75.43.584.69 1.622.695 2.201.01.176-.21.488-.305.743-.443.06-.033.143-.02.213-.033 1.223-.222 1.424-.497 1.244-1.7.84.143 1.78 1.116 1.62 2.049-.038.216.068.497.192.695.826 1.318 2.1 1.875 3.585 2.03.66.07 1.325.081 1.993.12 0 .024.013.073-.002.086-1.794 1.587-3.732 2.869-6.254 2.825-1.463-.025-2.786-.549-4.017-1.302-.305-.187-.51-.15-.827-.01-1 .444-2.004.915-3.054 1.19-1.371.36-2.723.058-4.004-.52-1.21-.547-2.266-1.322-3.319-2.26.75-.044 1.422-.058 2.087-.128 1.502-.16 2.795-.714 3.616-2.068.106-.174.183-.397.182-.598-.004-1.098.525-1.815 1.643-2.133M120.632 80.26c-1.35 0-2.702-.05-4.05.015-1.185.056-2.365.25-3.549.361-.229.022-.644-.012-.667-.099-.07-.269-.08-.625.047-.86.574-1.063 1.45-1.827 2.523-2.374 1.484-.754 3.094-1.038 4.722-1.289-.822.587-1.92.765-2.58 1.773 1.351.584 2.644 1.17 3.58 2.286l-.026.186M101.118 77.793c-.69-1.024-1.798-1.21-2.689-1.782 2.144.087 4.87 1.04 6.154 2.205.436.395.819.871 1.13 1.371.157.25.098.636.137.96-.269.022-.54.077-.805.061-2.324-.14-4.647-.293-6.97-.44-.176-.011-.353-.002-.635-.002 1.013-1.18 2.277-1.8 3.678-2.373M145.329 64.286c0 1.207.184 2.274.55 3.201.367.926.853 1.704 1.46 2.334a6.092 6.092 0 0 0 2.096 1.43c.79.323 1.61.485 2.457.485.655 0 1.264-.113 1.828-.341a6.697 6.697 0 0 0 1.585-.911 9.15 9.15 0 0 0 1.382-1.325c.427-.503.839-1.034 1.232-1.594l1.912 1.404a11.76 11.76 0 0 1-1.487 1.914 10.836 10.836 0 0 1-1.958 1.627c-.726.473-1.516.848-2.372 1.128-.856.28-1.76.42-2.71.42-1.609 0-3.086-.234-4.435-.702-1.35-.468-2.516-1.13-3.499-1.987a9.05 9.05 0 0 1-2.299-3.082c-.55-1.198-.826-2.531-.826-4 0-.945.119-1.843.355-2.696a9.307 9.307 0 0 1 1.015-2.367c.44-.726.98-1.38 1.618-1.962a9.906 9.906 0 0 1 2.154-1.487c.8-.412 1.675-.727 2.627-.945.953-.219 1.96-.328 3.027-.328 1.073 0 2.058.125 2.953.374a9.43 9.43 0 0 1 2.438 1.049c.728.45 1.38.986 1.951 1.607a12.163 12.163 0 0 1 1.513 2.033l-1.938 1.35c-.393-.559-.82-1.086-1.278-1.58a9.52 9.52 0 0 0-1.473-1.298 7.33 7.33 0 0 0-1.652-.885 5.05 5.05 0 0 0-1.807-.329c-.856 0-1.673.162-2.45.486a5.88 5.88 0 0 0-2.05 1.43c-.59.63-1.057 1.407-1.402 2.334s-.517 1.998-.517 3.213M168.202 64.745v8.893h-4.572V54.961h4.572v8.184h7.507V54.96h4.532v18.677h-4.532v-8.893zM198.752 54.96v1.588H189.4v6.165h7.768v1.6H189.4v7.41h9.353v1.915h-13.926V54.961zM215.94 54.96v1.588h-8.816v6.165h7.768v1.6h-7.768v9.325h-4.572V54.961zM143.534 83.653l6.144 8.409 5.751-8.409h3.092l-7.271 10.599v8.08h-4.585v-7.805l-7.926-10.874zM174.74 83.653v1.588h-9.354v6.164h7.768v1.6h-7.768v7.411h9.353v1.915h-13.926V83.653zM184.945 102.62c-1.118 0-2.096-.131-2.935-.394-.839-.262-1.552-.626-2.142-1.089a5.29 5.29 0 0 1-1.402-1.652 6.803 6.803 0 0 1-.713-2.1h3.17c.113.465.275.9.485 1.306.21.407.475.76.798 1.056.323.297.708.531 1.153.701.446.17.961.256 1.546.256.393 0 .78-.04 1.16-.124.38-.083.72-.217 1.021-.4.302-.184.545-.427.727-.728.184-.302.276-.671.276-1.109 0-.559-.142-1.053-.426-1.481a4.838 4.838 0 0 0-1.126-1.175c-.468-.353-1.001-.684-1.6-.99-.597-.306-1.206-.614-1.826-.924-.621-.31-1.23-.634-1.828-.971a8.924 8.924 0 0 1-1.598-1.134 5.261 5.261 0 0 1-1.127-1.417c-.283-.524-.426-1.128-.426-1.81 0-.743.162-1.432.485-2.066a4.753 4.753 0 0 1 1.409-1.646c.615-.463 1.368-.826 2.259-1.088.891-.263 1.904-.394 3.04-.394.943 0 1.795.131 2.554.394a6.94 6.94 0 0 1 2.01 1.069c.581.45 1.07.981 1.468 1.593.398.612.701 1.273.91 1.981h-2.881a9.937 9.937 0 0 0-.576-1.273 4.261 4.261 0 0 0-.813-1.062 3.614 3.614 0 0 0-1.166-.728c-.454-.18-1-.27-1.638-.27-.594 0-1.096.08-1.506.237-.41.158-.743.356-.996.597-.253.24-.435.51-.543.807-.11.297-.164.59-.164.878 0 .499.146.951.439 1.358.292.406.681.782 1.166 1.128.484.345 1.032.678 1.643.997.612.319 1.239.64 1.88.963.642.324 1.272.661 1.887 1.01.616.35 1.166.737 1.65 1.162a5.46 5.46 0 0 1 1.167 1.41 3.48 3.48 0 0 1 .439 1.744c0 .76-.157 1.467-.472 2.118a4.834 4.834 0 0 1-1.395 1.705c-.617.486-1.38.866-2.293 1.141-.913.276-1.963.414-3.15.414"/>
        </g>
    </g>
</svg>
