<svg xmlns="http://www.w3.org/2000/svg" xmlns:xlink="http://www.w3.org/1999/xlink" width="300" height="150" viewBox="0 0 300 150">
    <defs>
        <path id="a" d="M0 65.706h65.68V.026H0v65.68z"/>
    </defs>
    <g fill="none" fill-rule="evenodd">
        <path fill="#FFF" d="M0 0h300v150H0z"/>
        <g fill="#1D1C1B">
            <path d="M135.138 77.88v16.262h2.188c.896 0 1.663-.074 2.3-.223.639-.149 1.17-.407 1.593-.771.423-.365.733-.853.932-1.467.199-.613.299-1.385.299-2.313v-6.714c0-1.724-.311-2.951-.933-3.68-.622-.73-1.554-1.095-2.798-1.095h-3.58zm3.581-1.667c1.294 0 2.238-.406 2.836-1.219.596-.812.895-1.997.895-3.556v-8.604h-2.189c-.878 0-1.64.075-2.287.224-.648.149-1.182.402-1.605.758-.422.357-.733.842-.932 1.455-.2.614-.299 1.384-.299 2.313v8.629h3.581zm5.596-4.451c0 1.425-.245 2.573-.734 3.444-.49.87-1.066 1.505-1.728 1.902.298.216.597.465.895.746.299.282.563.63.795 1.045.233.414.42.907.56 1.479.14.573.212 1.248.212 2.027v6.167c0 .547-.01 1.107-.025 1.68a8.474 8.474 0 0 1-.211 1.665 5.995 5.995 0 0 1-.573 1.517 3.711 3.711 0 0 1-1.106 1.23c-.481.349-1.086.627-1.816.834-.73.208-1.633.31-2.71.31h-4.6V68.406c0-.548.012-1.111.037-1.692a9.79 9.79 0 0 1 .21-1.666c.117-.53.307-1.032.573-1.504a4.029 4.029 0 0 1 1.106-1.244c.473-.356 1.078-.634 1.816-.833.738-.198 1.645-.298 2.723-.298h4.576v10.594zM155.182 62.834c-.895 0-1.666.075-2.313.224-.646.15-1.18.402-1.604.758-.422.357-.733.842-.932 1.455-.2.614-.298 1.384-.298 2.312v12.161h6.913v-16.91h-1.766zm3.631 32.975h-1.865V81.41h-6.913V95.81h-1.865V68.405c0-.83.032-1.675.099-2.537a5.385 5.385 0 0 1 .709-2.337c.406-.697 1.044-1.265 1.914-1.705.87-.438 2.11-.658 3.718-.658h4.203v34.64zM173.808 71.09h-1.865v-8.256h-2.164c-.878 0-1.64.075-2.287.224-.647.15-1.181.402-1.604.758-.423.357-.734.842-.933 1.455-.198.614-.298 1.384-.298 2.312V90.86c0 .547.09 1.049.274 1.505.182.456.43.854.745 1.193.315.34.692.605 1.132.796.44.191.924.286 1.454.286.564 0 1.07-.1 1.517-.298.448-.2.834-.47 1.157-.809.323-.339.572-.737.746-1.193a4.11 4.11 0 0 0 .261-1.48V79.47h-3.158v-1.666h5.023v13.08c0 .797-.145 1.527-.435 2.189a5.325 5.325 0 0 1-1.181 1.716 5.282 5.282 0 0 1-1.753 1.12 5.797 5.797 0 0 1-2.152.397c-.795 0-1.529-.14-2.2-.423a5.473 5.473 0 0 1-1.741-1.143 5.118 5.118 0 0 1-1.144-1.716 5.56 5.56 0 0 1-.41-2.14v-22.48c0-.547.012-1.11.037-1.69.025-.58.095-1.136.212-1.667.115-.53.306-1.032.571-1.504a4.021 4.021 0 0 1 1.107-1.244c.473-.356 1.078-.634 1.816-.833.737-.199 1.644-.298 2.722-.298h4.551v9.922zM184.302 62.834c-.895 0-1.665.075-2.312.224-.647.15-1.181.402-1.604.758-.423.357-.734.842-.933 1.455-.199.614-.298 1.384-.298 2.312v12.161h6.913v-16.91h-1.766zm3.631 32.975h-1.865V81.41h-6.913V95.81h-1.865V68.405c0-.83.033-1.675.1-2.537a5.385 5.385 0 0 1 .708-2.337c.406-.697 1.044-1.265 1.915-1.705.87-.438 2.11-.658 3.717-.658h4.203v34.64zM201.387 61.168v1.666h-4.6v32.975h-1.865V62.834h-4.626v-1.666zM212.28 62.361h-2.164c-.88 0-1.642.075-2.288.225-.646.149-1.181.402-1.604.758-.423.356-.734.841-.932 1.455-.2.613-.299 1.384-.299 2.312v23.003c0 .597.062 1.165.187 1.703.124.54.33 1.02.621 1.443.29.422.667.758 1.131 1.007.465.249 1.045.373 1.742.373.662 0 1.222-.12 1.678-.36.456-.24.825-.568 1.107-.983.281-.414.488-.895.621-1.442a7.385 7.385 0 0 0 .2-1.741V62.361zm1.864 26.932c0 .913-.082 1.791-.248 2.636-.166.846-.46 1.592-.883 2.238a4.636 4.636 0 0 1-1.716 1.555c-.722.39-1.629.585-2.723.585-1.028 0-1.89-.188-2.586-.56a4.595 4.595 0 0 1-1.679-1.504c-.423-.63-.725-1.372-.907-2.227a13.006 13.006 0 0 1-.274-2.723v-21.36c0-.548.013-1.112.037-1.692.025-.58.095-1.135.212-1.667.115-.53.306-1.031.572-1.504a4.021 4.021 0 0 1 1.106-1.243c.473-.356 1.078-.634 1.815-.833.738-.2 1.646-.298 2.724-.298h4.55v28.597zM219.963 80.838c.464-.199.97-.435 1.517-.708a7.99 7.99 0 0 0 1.629-1.107c.538-.464 1.06-1.057 1.567-1.778.506-.721.948-1.625 1.33-2.71.381-1.086.688-2.396.92-3.93.232-1.533.349-3.345.349-5.434v-2.337h-2.189c-.879 0-1.641.075-2.288.224-.647.149-1.18.402-1.604.758-.423.357-.733.842-.933 1.455-.198.614-.298 1.384-.298 2.313v13.254zm9.177-17.78c0 1.99-.063 3.776-.187 5.359a35.815 35.815 0 0 1-.572 4.277c-.257 1.268-.593 2.392-1.007 3.37a12.066 12.066 0 0 1-1.492 2.61c.066.266.17.718.31 1.356.141.638.311 1.384.51 2.238a2533.306 2533.306 0 0 1 1.343 5.795l.672 2.897.572 2.474c.165.721.348 1.513.547 2.375h-1.99l-3.457-15.543a13.183 13.183 0 0 1-2.014 1.43c-.729.423-1.533.817-2.412 1.181V95.81h-1.84V68.404c0-.547.012-1.11.037-1.69a9.79 9.79 0 0 1 .212-1.667c.115-.53.306-1.032.572-1.504a4.029 4.029 0 0 1 1.106-1.244c.473-.356 1.078-.634 1.815-.833.738-.198 1.646-.299 2.724-.299h4.55v1.89z"/>
        </g>
        <path fill="#020303" d="M79.368 83.925l-1.397.235c-.388-.629-1.193-.672-1.822-.974-.7-.335-.64-1.54-1.078-2.14l.204-1.214 4.093 4.093zm.783.6a.576.576 0 0 0 .387-.29c.082-.15.077-.307-.013-.397l-5.163-5.164c-.09-.09-.246-.094-.397-.012a.574.574 0 0 0-.291.387l-1.016 6.05-3.522 3.522-2.452-.466c-.07-.012-.156.03-.208.103-.054.074-.058.158-.012.204l3.274 3.274c.046.046.13.041.203-.012.074-.052.116-.138.103-.208l-.465-2.452 3.522-3.522 6.05-1.016zM85.28 89.837l-1.397.235c-.388-.628-1.193-.672-1.822-.974-.7-.335-.64-1.54-1.078-2.14l.204-1.214 4.093 4.093zm.783.601a.576.576 0 0 0 .387-.291c.082-.15.077-.307-.012-.397l-5.164-5.163c-.09-.09-.246-.095-.397-.013a.574.574 0 0 0-.29.387l-1.017 6.05-3.522 3.522-2.452-.465c-.07-.013-.156.03-.208.102-.053.074-.058.158-.012.204l3.274 3.274c.046.046.13.041.203-.012.074-.052.116-.138.103-.208l-.465-2.452 3.522-3.522 6.05-1.016zM91.305 95.862l-1.397.235c-.388-.629-1.193-.672-1.822-.974-.7-.335-.64-1.54-1.078-2.141l.204-1.213 4.093 4.093zm.783.6a.576.576 0 0 0 .387-.29c.082-.15.077-.307-.013-.397L87.3 90.611c-.09-.09-.246-.094-.397-.012a.574.574 0 0 0-.291.387l-1.016 6.05-3.522 3.522-2.452-.466c-.07-.012-.156.03-.208.103-.054.074-.058.158-.012.204l3.274 3.274c.046.046.13.04.203-.012.074-.052.116-.138.103-.208L82.516 101l3.522-3.522 6.05-1.016zM94.772 60.333l1.214-.203c.6.438 1.806.378 2.141 1.078.302.629.345 1.433.974 1.822l-.235 1.397-4.094-4.094zm5.712-1.173l3.521-3.522 2.452.465c.07.013.156-.03.208-.102.053-.074.058-.158.012-.204l-3.274-3.274c-.046-.046-.13-.041-.204.011-.073.053-.115.14-.102.209l.465 2.451-3.522 3.522-6.05 1.017a.577.577 0 0 0-.387.291c-.082.15-.077.307.012.397l5.164 5.163c.09.09.246.095.397.013a.576.576 0 0 0 .29-.387l1.018-6.05zM100.685 66.246l1.213-.204c.6.438 1.806.378 2.142 1.078.301.629.344 1.434.973 1.822l-.235 1.397-4.093-4.093zm5.71-1.174l3.522-3.522 2.452.465c.07.013.156-.03.208-.102.053-.074.058-.158.012-.204l-3.274-3.274c-.046-.046-.13-.041-.203.011-.073.053-.116.14-.103.209l.465 2.451-3.522 3.522-6.05 1.017a.577.577 0 0 0-.387.291c-.082.15-.077.307.012.397l5.164 5.163c.09.09.246.095.397.013a.576.576 0 0 0 .29-.387l1.018-6.05zM106.71 72.27l1.213-.203c.6.438 1.806.378 2.141 1.078.302.629.345 1.433.974 1.822l-.235 1.397-4.094-4.094zm5.71-1.173l3.522-3.522 2.451.465c.07.013.157-.03.209-.103.053-.073.058-.157.012-.203l-3.274-3.274c-.046-.046-.13-.041-.204.011-.073.053-.115.14-.102.209l.465 2.451-3.522 3.522-6.05 1.017a.577.577 0 0 0-.387.291c-.082.15-.078.307.012.396l5.164 5.164c.09.09.246.095.397.013a.576.576 0 0 0 .29-.387l1.017-6.05zM75.29 76.206l-.205-1.214c.439-.6.378-1.805 1.079-2.141.629-.302 1.433-.345 1.822-.974l1.397.235-4.094 4.094zm-1.175-5.711l-3.522-3.522.466-2.451c.013-.07-.03-.157-.103-.209-.073-.053-.157-.058-.204-.012l-3.273 3.275c-.046.045-.042.13.011.203.053.073.14.116.209.103l2.451-.466 3.522 3.522 1.017 6.05c.026.153.14.306.291.388.15.081.307.077.396-.013l5.164-5.164c.09-.09.095-.246.013-.396a.576.576 0 0 0-.387-.291l-6.05-1.017zM81.201 70.294l-.203-1.214c.438-.6.378-1.806 1.078-2.141.629-.302 1.433-.345 1.822-.974l1.397.235-4.094 4.094zm-1.173-5.711l-3.522-3.522.465-2.451c.013-.07-.03-.157-.103-.209-.073-.053-.157-.058-.203-.012l-3.274 3.274c-.046.046-.041.13.011.204.053.073.14.116.209.102l2.451-.465 3.522 3.522 1.017 6.05c.026.153.14.306.291.387.15.082.307.078.396-.012l5.164-5.164c.09-.09.095-.246.013-.397a.576.576 0 0 0-.387-.29l-6.05-1.017zM87.226 64.269l-.204-1.213c.439-.6.378-1.806 1.079-2.142.629-.302 1.433-.345 1.822-.974l1.397.235-4.094 4.094zm-1.174-5.711l-3.522-3.522.466-2.451c.013-.07-.03-.157-.103-.209-.073-.053-.157-.058-.204-.012l-3.273 3.275c-.046.045-.042.13.011.203.053.073.14.116.209.103l2.451-.466 3.522 3.522 1.016 6.05c.027.153.141.306.292.388.15.082.307.077.396-.013l5.164-5.163c.09-.09.095-.247.013-.397a.576.576 0 0 0-.388-.291l-6.05-1.017zM98.951 91.68l.235 1.398c-.629.388-.673 1.192-.974 1.822-.335.7-1.54.639-2.141 1.077l-1.214-.203 4.094-4.094zm.6-.783a.576.576 0 0 0-.29-.387c-.151-.082-.307-.077-.397.013L93.7 95.686c-.09.09-.095.247-.012.397.082.151.234.266.387.291l6.05 1.017 3.522 3.522-.466 2.451c-.012.07.03.157.103.209.073.053.158.058.204.012l3.274-3.275c.046-.046.04-.13-.012-.203-.052-.074-.139-.116-.208-.103l-2.452.465-3.522-3.522-1.016-6.05zM104.863 85.768l.235 1.397c-.629.388-.672 1.193-.974 1.822-.335.7-1.54.64-2.14 1.078l-1.214-.204 4.093-4.093zm.6-.783a.576.576 0 0 0-.29-.387c-.15-.082-.307-.077-.397.013l-5.164 5.163c-.09.09-.094.246-.012.397.082.15.234.266.387.291l6.05 1.016L109.559 95l-.466 2.452c-.012.07.03.156.103.209.074.053.158.057.204.012l3.274-3.275c.046-.046.041-.13-.012-.203-.052-.074-.138-.116-.208-.103l-2.452.465-3.522-3.522-1.016-6.05zM110.888 79.743l.235 1.398c-.629.388-.673 1.192-.974 1.822-.335.7-1.54.639-2.141 1.078l-1.214-.204 4.094-4.094zm.6-.783a.576.576 0 0 0-.29-.387c-.151-.081-.307-.077-.397.013l-5.164 5.164c-.09.09-.095.246-.012.396.082.151.234.266.387.291l6.05 1.017 3.522 3.522-.466 2.451c-.012.07.03.157.103.209.073.053.158.058.204.012l3.274-3.275c.046-.045.04-.13-.012-.203-.052-.073-.139-.116-.209-.103l-2.451.465-3.522-3.522-1.016-6.05z"/>
        <path fill="#010202" d="M103.038 70.373l-2.384-2.384a2.288 2.288 0 0 0-3.226 0l-2.384 2.384a2.288 2.288 0 0 0 0 3.227l2.384 2.384c.887.887 2.34.887 3.226 0l2.384-2.384a2.288 2.288 0 0 0 0-3.227m-6.024 6.025l-2.385-2.384a2.288 2.288 0 0 0-3.226 0l-2.384 2.384a2.288 2.288 0 0 0 0 3.226l2.384 2.384a2.288 2.288 0 0 0 3.226 0l2.385-2.384a2.288 2.288 0 0 0 0-3.226M91.1 82.31l-2.384-2.384a2.288 2.288 0 0 0-3.226 0l-2.384 2.384a2.288 2.288 0 0 0 0 3.226l2.384 2.385c.887.887 2.34.887 3.226 0l2.384-2.385a2.288 2.288 0 0 0 0-3.226m17.962-5.912l-2.384-2.384a2.288 2.288 0 0 0-3.226 0l-2.384 2.384a2.288 2.288 0 0 0 0 3.226l2.384 2.384a2.288 2.288 0 0 0 3.226 0l2.384-2.384a2.288 2.288 0 0 0 0-3.226m-6.025 6.025l-2.384-2.384a2.288 2.288 0 0 0-3.226 0l-2.384 2.384a2.288 2.288 0 0 0 0 3.226l2.384 2.385c.887.887 2.34.887 3.226 0l2.384-2.385a2.288 2.288 0 0 0 0-3.226m-5.911 5.912l-2.385-2.384a2.288 2.288 0 0 0-3.226 0l-2.384 2.384a2.288 2.288 0 0 0 0 3.226l2.384 2.385a2.288 2.288 0 0 0 3.226 0l2.385-2.385a2.288 2.288 0 0 0 0-3.226m0-23.874l-2.385-2.384a2.288 2.288 0 0 0-3.226 0l-2.384 2.384a2.287 2.287 0 0 0 0 3.226l2.384 2.384a2.287 2.287 0 0 0 3.226 0l2.385-2.384a2.288 2.288 0 0 0 0-3.226M91.1 70.486l-2.384-2.384a2.288 2.288 0 0 0-3.226 0l-2.384 2.384a2.288 2.288 0 0 0 0 3.226l2.384 2.385c.887.887 2.34.887 3.226 0l2.384-2.385a2.288 2.288 0 0 0 0-3.226m-5.911 9.138l-2.385 2.384a2.288 2.288 0 0 1-3.226 0l-2.384-2.384a2.288 2.288 0 0 1 0-3.226l2.384-2.384a2.288 2.288 0 0 1 3.226 0l2.385 2.384c.887.888.887 2.34 0 3.226"/>
        <path fill="#010202" d="M80.934 104.93c3.356 3.357 7.839 5.205 12.62 5.205 4.781 0 9.263-1.848 12.62-5.205l13.234-13.234c3.357-3.357 5.206-7.84 5.206-12.62 0-4.782-1.849-9.264-5.206-12.62l-14.662-14.664c-3.357-3.357-7.84-5.205-12.62-5.205-4.782 0-9.264 1.848-12.62 5.205L66.27 65.027c-3.357 3.357-5.205 7.838-5.205 12.62 0 4.781 1.848 9.263 5.205 12.62l14.663 14.663zm12.62 6.01c-4.997 0-9.68-1.932-13.19-5.441L65.703 90.836c-3.509-3.509-5.442-8.193-5.442-13.19 0-4.996 1.933-9.68 5.442-13.188l13.234-13.235c3.509-3.508 8.193-5.441 13.19-5.441 4.996 0 9.68 1.933 13.189 5.441l14.662 14.663c3.51 3.509 5.441 8.193 5.441 13.19 0 4.996-1.932 9.68-5.44 13.188L106.742 105.5c-3.509 3.509-8.193 5.441-13.19 5.441z"/>
        <g transform="translate(60 45.495)">
            <mask id="b" fill="#fff">
                <use xlink:href="#a"/>
            </mask>
            <path fill="#1D1C1B" d="M21.118 59.25c3.307 3.307 7.724 5.129 12.436 5.129s9.129-1.822 12.435-5.129l13.235-13.235c3.307-3.307 5.129-7.723 5.129-12.435 0-4.712-1.822-9.128-5.129-12.436L44.561 6.481c-3.307-3.307-7.724-5.129-12.436-5.129-4.711 0-9.127 1.822-12.435 5.13L6.455 19.715C3.148 23.024 1.326 27.44 1.326 32.15c0 4.712 1.822 9.128 5.13 12.436L21.117 59.25zm12.436 5.65c-4.852 0-9.399-1.875-12.805-5.281L6.087 44.956C2.68 41.55.805 37.002.805 32.15c0-4.85 1.875-9.398 5.282-12.804L19.32 6.113C22.727 2.706 27.275.83 32.125.83c4.852 0 9.4 1.875 12.805 5.282l14.663 14.663c3.406 3.406 5.281 7.953 5.281 12.804S63 42.978 59.593 46.384L46.358 59.619c-3.406 3.406-7.953 5.281-12.804 5.281zM32.125.548c-4.927 0-9.545 1.905-13.004 5.364L5.886 19.147C2.426 22.606.522 27.225.522 32.151c0 4.927 1.904 9.546 5.364 13.005L20.55 59.82c3.46 3.46 8.078 5.365 13.005 5.365 4.927 0 9.545-1.905 13.005-5.365l13.234-13.234c3.46-3.46 5.365-8.078 5.365-13.005 0-4.927-1.905-9.545-5.365-13.005L45.13 5.912C41.67 2.452 37.053.548 32.125.548zm1.43 65.158c-5.067 0-9.817-1.96-13.374-5.518L5.518 45.525C1.96 41.967 0 37.218 0 32.151c0-5.066 1.96-9.815 5.518-13.373L18.752 5.543C22.31 1.986 27.06.026 32.125.026c5.066 0 9.817 1.96 13.374 5.517l14.663 14.664c3.558 3.558 5.518 8.307 5.518 13.373 0 5.066-1.96 9.815-5.518 13.373L46.927 60.188c-3.558 3.558-8.307 5.518-13.373 5.518z" mask="url(#b)"/>
        </g>
    </g>
</svg>
