<svg xmlns="http://www.w3.org/2000/svg" width="20" height="20" viewBox="0 0 20 20">
    <path fill="#86E989" fill-rule="evenodd" d="M8.726 13.66l6.179-6.179-1.831-1.84-4.351 4.351-1.828-1.847L5.046 9.98l3.68 3.68M19.97 9.354v1.248c-.011.056-.029.113-.033.17-.072.957-.264 1.891-.63 2.778-1.422 3.442-3.958 5.538-7.618 6.258-.354.07-.717.101-1.075.15H9.366c-.05-.01-.1-.025-.15-.032-.449-.066-.903-.106-1.346-.2-5.418-1.153-8.88-6.62-7.605-11.999a9.98 9.98 0 0 1 12.2-7.42c3.768.943 6.724 4.136 7.354 7.95.06.364.101.731.151 1.097"/>
</svg>
