<svg xmlns="http://www.w3.org/2000/svg" width="19" height="18" viewBox="0 0 19 18">
    <path fill="#F6A623" fill-rule="evenodd" d="M19 6.786l-1.777 1.611c-.98.889-1.96 1.779-2.944 2.663-.116.105-.158.195-.124.362.403 2.01.795 4.02 1.189 6.032.009.047.008.095.015.176-.096-.05-.17-.085-.242-.124-1.812-.973-3.625-1.945-5.434-2.923-.134-.072-.233-.073-.368 0-1.809.977-3.622 1.95-5.434 2.922-.072.04-.147.076-.26.134.086-.443.16-.844.24-1.245.329-1.678.657-3.356.994-5.033.029-.142-.038-.206-.123-.283L.217 6.987C.155 6.93.096 6.872 0 6.78c.318-.044.598-.086.88-.123 1.85-.241 3.7-.485 5.553-.717.167-.021.24-.09.308-.23C7.614 3.89 8.493 2.07 9.37.25c.035-.073.074-.145.127-.249.053.103.092.175.128.248.874 1.814 1.75 3.627 2.62 5.444.074.157.156.229.337.252 2.055.258 4.11.529 6.164.796.07.01.138.025.253.046"/>
</svg>
